<?xml version="1.0" ?><svg id="레이어_1" style="enable-background:new 0 0 100 100;" version="1.1" viewBox="0 0 100 100" xml:space="preserve" xmlns="http://www.w3.org/2000/svg" xmlns:xlink="http://www.w3.org/1999/xlink"><g id="레이어_7"><path d="M23,34H31c1.1,0,2-0.9,2-2c0-1.1-0.9-2-2-2c0,0,0,0,0,0H23c-1.1,0-2,0.9-2,2C21,33.1,21.9,34,23,34z"/><path d="M46,56c0-1.1-0.9-2-2.1-2c0,0,0,0,0,0H20.1c-1.1,0-2.1,0.9-2.1,2c0,1.1,0.9,2,2.1,2h23.9C45.1,58,46,57.1,46,56z"/><path d="M41,34h38c1.1,0,2-0.9,2-2s-0.9-2-2-2c0,0,0,0,0,0H41c-1.1,0-2,0.9-2,2C39,33.1,39.9,34,41,34C41,34,41,34,41,34z"/><path d="M82,43c0-1.1-0.9-2-2-2H60c-1.1,0-2,0.9-2,2c0,1.1,0.9,2,2,2c0,0,0,0,0,0H80C81.1,45,82,44.1,82,43z"/><path d="M55,43c0-1.1-0.9-2-2.1-2c0,0,0,0,0,0H27.1c-1.1,0-2.1,0.9-2.1,2c0,1.1,0.9,2,2.1,2c0,0,0,0,0,0h25.9   C54.1,45,55,44.1,55,43z"/><path d="M51.5,58h23c1.1,0,2-0.9,2-2c0-1.1-0.9-2-2-2c0,0,0,0,0,0h-23c-1.1,0-2,0.9-2,2C49.5,57.1,50.4,58,51.5,58   C51.5,58,51.5,58,51.5,58z"/><path d="M79.5,66H26.5c-1.1,0-2,0.9-2,2s0.9,2,2,2h52.9c1.1,0,2-0.9,2-2S80.6,66,79.5,66z"/></g></svg>