<?xml version="1.0" ?><svg id="레이어_1" style="enable-background:new 0 0 100 100;" version="1.1" viewBox="0 0 100 100" xml:space="preserve" xmlns="http://www.w3.org/2000/svg" xmlns:xlink="http://www.w3.org/1999/xlink"><path d="M65.3,60.1h-45c-1.1-0.2-2.1,0.5-2.4,1.6c-0.2,1.1,0.4,2.2,1.5,2.4c0.3,0.1,0.6,0.1,0.8,0H65c3.7,0.3,6.5,2.9,6.5,5.1  c0,2.8-0.7,5.4-5.9,5.9c-1.1,0.1-1.8,1.1-1.7,2.2c0.1,1,0.9,1.8,1.9,1.8H66c4.3-0.4,9.5-2.4,9.5-9.8C75.7,64.6,71,60.5,65.3,60.1z"/><path d="M20.3,41.3h30.9c5.4,0,9.8-4.5,9.8-10.1c0-5.6-4.4-10.1-9.8-10.1c-1.1-0.2-2.1,0.4-2.4,1.5c-0.2,1.1,0.4,2.2,1.5,2.4  c0.3,0.1,0.6,0.1,0.9,0c3.3,0,6,2.7,6,6.1s-2.7,6.1-6,6.1H20.3c-1.1-0.2-2.1,0.4-2.4,1.5c-0.2,1.1,0.4,2.2,1.5,2.4  C19.7,41.3,20,41.3,20.3,41.3z"/><path d="M71.9,32.3c-1.1-0.2-2.1,0.4-2.4,1.5c-0.2,1.1,0.4,2.2,1.5,2.4c0.3,0.1,0.6,0.1,0.9,0c3.3,0,6,2.7,6,6.1  c0,3.4-2.7,6.1-6,6.1H20.3c-1.1-0.2-2.1,0.5-2.4,1.6c-0.2,1.1,0.4,2.2,1.5,2.4c0.3,0.1,0.6,0.1,0.8,0h51.5c5.4,0.2,10-4.2,10.1-9.8  s-4.1-10.3-9.5-10.4C72.4,32.3,72.2,32.3,71.9,32.3z"/></svg>