<?xml version="1.0" ?><svg height="512px" version="1.1" viewBox="0 0 512 512" width="512px" xmlns="http://www.w3.org/2000/svg" xmlns:xlink="http://www.w3.org/1999/xlink"><title/><desc/><defs><polygon id="path-1" points="165.225425 382.580752 165.225425 0.470491798 0.474922829 0.470491798 0.474922829 382.580752 165.225425 382.580752"/></defs><g fill="none" fill-rule="evenodd" id="SVG" stroke="none" stroke-width="1"><g id="Umbrella"><g transform="translate(0.000000, 4.000000)"><path d="M480.656269,382.674816 C531.398909,257.723735 482.007017,111.767144 361.039264,44.8844436 C240.071511,-22.0051485 90.1936159,13.7689987 11.3471474,123.179586 C41.4977723,156.741539 25.936604,186.451104 25.936604,186.451104 L25.936604,186.451104 C26.7704842,187.650237 27.6870632,188.821804 28.5347265,190.014046 L30.133571,189.359347 C45.8463539,193.335783 62.3861252,201.143934 77.8508115,212.632183 C108.270208,235.236538 126.243426,265.910922 126.56733,291.237447 C129.585838,293.587473 132.556105,295.971957 135.643529,298.273741 C155.449906,293.022364 184.463421,298.115235 212.456984,313.593705 C240.381632,329.037716 260.084634,350.821973 266.225025,370.345795 C269.808642,371.737893 273.392259,373.192014 276.982767,374.494521 C298.587844,361.255812 334.18281,360.153161 369.536572,373.915629 C387.489115,380.910574 402.891777,390.75863 414.621232,401.957433 L414.924461,403.680326 C416.385474,403.769917 417.86027,403.893965 419.314392,403.962881 L419.314392,403.962881 C419.314392,403.962881 436.198742,374.990714 480.656269,382.674816" fill="#FEFEFE" id="Fill-1"/><path d="M361.037197,44.8837545 C240.069444,-22.0058377 90.1915484,13.7683095 11.3519715,123.178897 C41.4957048,156.747742 25.9345366,186.450414 25.9345366,186.450414 C101.438593,73.8007881 237.050935,21.0389174 365.544284,47.5232263 C364.03503,46.6479968 362.567125,45.7314178 361.037197,44.8837545" fill="#D73838" id="Fill-6"/><path d="M24.4776584,122.848102 C32.3409414,133.219917 36.5999325,143.205804 38.6674039,152.192413 C103.179404,74.6415598 197.924728,30.5630691 297.556176,30.3149725 C197.966077,3.61013328 89.3066707,38.4125689 24.4776584,122.848102 M25.9317799,196.787772 C24.1261882,196.787772 22.3137049,196.319145 20.6528362,195.33365 C15.9321098,192.52878 14.2367832,186.51933 16.7797731,181.653881 C17.2139421,180.778651 28.2955889,157.512706 3.65822113,130.091143 C0.412290995,126.473068 0.122844995,121.08386 2.96217242,117.134989 C85.8126439,2.15601171 241.906736,-32.7980385 366.037721,35.8420128 C367.071456,36.4071216 368.070734,37.0066883 369.083795,37.6062551 L370.717098,38.5710751 C375.107029,41.1140649 377.009102,46.4619243 375.210402,51.2033255 C373.397919,55.937835 368.408421,58.6668973 363.460273,57.6469447 C236.007551,31.3831661 106.914636,84.207061 34.5255695,192.204877 C32.5407969,195.168252 29.2673005,196.787772 25.9317799,196.787772" fill="#2E2E30" id="Fill-8"/><path d="M361.037197,44.8837545 C482.00495,111.773347 531.396842,257.723046 480.654202,382.674127 C436.203566,374.990025 419.312324,403.962191 419.312324,403.962191 C474.575836,280.120653 447.154273,137.217028 356.406061,42.4717045 C357.949773,43.2849099 359.507268,44.0360912 361.037197,44.8837545" fill="#D73838" id="Fill-10"/><g id="Group-14" transform="translate(345.590428, 31.662286)"><mask fill="white" id="mask-2"><use xlink:href="#path-1"/></mask><g id="Clip-13"/></g><path d="M480.656269,382.674816 C526.064833,270.852179 491.22794,142.255456 396.716929,68.515642 C423.849046,169.863091 430.010111,315.316597 270.863052,372.137604 C272.902957,372.937026 274.935971,373.757123 276.982767,374.494521 C298.587844,361.255812 334.175919,360.153161 369.536572,373.915629 C387.489115,380.910574 402.891777,390.75863 414.621232,401.950542 L414.924461,403.680326 C416.385474,403.769917 417.86027,403.893965 419.314392,403.962881 L419.314392,403.962881 C419.314392,403.962881 436.198742,374.990714 480.656269,382.674816" fill="#010201" fill-opacity="0.3" id="Fill-23"/><path d="M407.121135,90.8905069 C459.896788,175.408739 472.942533,279.085539 441.565209,374.967972 C450.276155,371.935681 460.95809,370.226571 473.955594,371.370572 C510.99779,271.580618 482.694107,161.039812 407.121135,90.8905069 M419.305433,414.243038 C417.679022,414.243038 416.04572,413.85711 414.529574,413.057687 C409.712365,410.521589 407.651786,404.725778 409.870872,399.750063 C462.860164,281.015179 438.932628,143.583462 348.942489,49.6237773 C345.427787,45.9574613 345.096992,40.2925896 348.149958,36.2403456 C351.216707,32.1949932 356.743748,30.9614019 361.237052,33.3321025 L362.918596,34.2004405 C363.966114,34.737983 365.020525,35.268634 366.047369,35.847526 C490.16457,104.487577 543.560465,255.261377 490.233486,386.559595 C488.400328,391.066683 483.679601,393.671697 478.889959,392.858492 C442.633402,386.566487 428.76756,408.336961 428.19556,409.267323 C426.238354,412.444337 422.813243,414.243038 419.305433,414.243038" fill="#2E2E30" id="Fill-12"/><path d="M319.536153,353.699204 C336.647925,353.699204 355.138011,357.220797 373.290411,364.284658 C389.781941,370.707603 404.826241,379.645971 417.162154,390.30034 C426.010932,381.299948 443.915234,368.757288 473.955594,371.369194 C518.433796,251.53855 468.683542,116.215654 356.033916,53.9296311 C243.384289,-8.35639133 102.313823,21.4703298 24.480415,122.845345 C42.6465972,146.814231 41.5715121,168.729428 38.6563774,181.010208 C54.2382204,185.786067 69.8062802,193.78029 84.0098089,204.338177 C114.415422,226.921857 134.173557,257.76853 136.64074,286.003298 C137.130041,286.382335 137.626234,286.768263 138.108644,287.147299 C160.809481,283.033031 189.981502,289.352602 217.458198,304.548517 C244.893544,319.709974 265.761222,341.053171 274.355011,362.430825 C274.947686,362.665139 275.540362,362.892561 276.139928,363.126874 C288.393142,356.848653 303.347852,353.699204 319.536153,353.699204 M419.319216,414.303683 C419.140035,414.303683 418.967746,414.296792 418.788565,414.2899 L414.302152,414.000454 C410.187884,413.759249 406.686966,411.105994 405.26041,407.370763 C394.42686,397.619189 380.843573,389.418219 365.785489,383.5466 C334.656261,371.431218 301.914405,371.348519 282.3768,383.312287 C279.702871,384.959372 276.401808,385.283276 273.452215,384.208191 C270.895442,383.284721 268.352453,382.278551 265.809463,381.286165 L262.494617,379.990549 C259.558807,378.85344 257.305264,376.448282 256.361118,373.450448 C250.778945,355.704652 232.047654,336.235962 207.458528,322.638892 C182.77981,309.000472 156.274827,303.487215 138.294717,308.269966 C135.255534,309.069388 131.988929,308.456038 129.459722,306.553964 C127.261311,304.91377 125.118032,303.239119 122.981645,301.557575 L120.218125,299.400513 C117.737159,297.470873 116.269255,294.514389 116.227905,291.371833 C115.938459,268.471141 98.4545425,240.822156 71.6807876,220.933081 C58.6970671,211.284881 44.5211047,204.145213 30.5036484,200.161885 C26.5616696,200.919958 22.4956424,199.355571 20.1180503,196.006267 L19.029182,194.52458 C18.498531,193.814748 17.9747716,193.104916 17.4716869,192.388192 C15.2594924,189.238744 14.9838296,185.124476 16.7411803,181.706257 C17.3958796,180.376183 28.0847068,157.282528 3.65408619,130.088387 C0.408156052,126.470312 0.118710052,121.081103 2.95803747,117.139124 C85.8154006,2.15325508 241.902602,-32.8007951 366.033586,35.8392561 C490.171462,104.472416 543.560465,255.253107 490.233486,386.565109 C488.400328,391.065305 483.679601,393.670319 478.889959,392.864005 C441.958028,386.461735 428.374741,408.948932 428.243801,409.169463 C426.389968,412.36026 422.985532,414.303683 419.319216,414.303683" fill="#2E2E30" id="Fill-3"/><path d="M212.458363,313.594394 C240.410576,329.052188 260.127362,350.864012 266.240186,370.408508 C267.735657,370.9874 269.224236,371.628317 270.719707,372.193425 C370.385613,175.597568 361.033751,44.8851328 361.033751,44.8851328 C361.033751,44.8851328 245.358725,106.468215 131.854543,295.407537 C133.129484,296.372357 134.459557,297.295827 135.748281,298.253756 C155.547766,293.043728 184.506149,298.136599 212.458363,313.594394" fill="#D73838" id="Fill-15"/><path d="M217.461643,304.549895 C240.424359,317.24417 258.790397,334.25946 269.203562,352.005256 C338.594794,209.342836 349.40767,103.825986 350.744635,63.5309684 C317.299839,86.1697805 233.512113,151.639709 149.758846,285.963327 C170.199247,285.384435 194.492036,291.848729 217.461643,304.549895 M270.726599,382.521134 C269.513682,382.521134 268.293874,382.314387 267.101632,381.873327 C266.164379,381.521857 265.234017,381.135929 264.296763,380.763784 L262.504954,380.040169 C259.569145,378.903059 257.315601,376.491009 256.371456,373.493176 C250.816849,355.733596 232.071775,336.251124 207.461973,322.64027 C182.838389,309.029417 156.367863,303.523051 138.37397,308.243778 C135.334787,309.0432 132.095748,308.422959 129.580325,306.548451 L128.036613,305.425125 C127.209624,304.83245 126.389527,304.232883 125.590105,303.626425 C121.40003,300.428736 120.276703,294.598466 122.991983,290.077595 C236.661561,100.862611 351.351093,38.3284917 356.175193,35.7579356 C359.262617,34.11085 362.970282,34.1453079 366.037032,35.8406345 C369.096889,37.5290695 371.095445,40.6578429 371.343542,44.144978 C371.736361,49.596211 379.75815,179.984742 279.94063,376.863154 C278.14193,380.426097 274.516963,382.521134 270.726599,382.521134" fill="#2E2E30" id="Fill-17"/><path d="M212.458363,313.594394 L113.371349,492.795925" fill="#D73838" id="Fill-19"/><path d="M113.361012,503.133282 C111.665685,503.133282 109.949684,502.712896 108.364622,501.844558 C103.368233,499.081038 101.55575,492.789034 104.31927,487.792644 L203.413175,308.591113 C206.183587,303.594724 212.496266,301.796024 217.458198,304.552652 C222.461479,307.309281 224.273962,313.601285 221.50355,318.597675 L122.409645,497.799206 C120.528246,501.210534 116.99287,503.133282 113.361012,503.133282" fill="#2E2E30" id="Fill-21"/></g></g></g></svg>