<svg xmlns="http://www.w3.org/2000/svg" xmlns:xlink="http://www.w3.org/1999/xlink" width="378" height="155" viewBox="0 0 378 155">
  <defs>
    <clipPath id="clip-What_s_the_Weather">
      <rect width="378" height="155"/>
    </clipPath>
  </defs>
  <g id="What_s_the_Weather" data-name="What&apos;s the Weather" clip-path="url(#clip-What_s_the_Weather)">
    <rect width="378" height="155" fill="rgba(255,255,255,0)"/>
    <text id="_What_s_the" data-name="
What&apos;s the" transform="translate(153 7)" fill="#707070" font-size="40" font-family="News706BT-BoldC, News706 BT" font-weight="700"><tspan x="0" y="0"></tspan><tspan x="0" y="47">What&apos;s the</tspan></text>
    <text id="Weather" transform="translate(20 130)" fill="#d73838" font-size="81" font-family="News706BT-BoldC, News706 BT" font-weight="700"><tspan x="0" y="0">Weather</tspan></text>
    <g id="SVG" transform="translate(100.298 16.705)">
      <g id="Umbrella" transform="translate(0 0)">
        <g id="Group_1" data-name="Group 1">
          <path id="Fill-1" d="M12.938,41A21.723,21.723,0,0,1,50.685,20.132c-2.425,2.7-1.173,5.089-1.173,5.089h0c-.067.1-.141.191-.209.287l-.129-.053a11.1,11.1,0,0,0-3.838,1.872c-2.447,1.818-3.892,4.285-3.918,6.322-.243.189-.482.381-.73.566a8.954,8.954,0,0,0-6.178,1.232,8.971,8.971,0,0,0-4.325,4.565c-.288.112-.576.229-.865.334-1.738-1.065-4.6-1.154-7.444-.047a11.107,11.107,0,0,0-3.626,2.255l-.024.139c-.118.007-.236.017-.353.023h0S16.514,40.385,12.938,41" transform="translate(-10.512 -10.29)" fill="#fefefe" fill-rule="evenodd"/>
          <path id="Fill-6" d="M11.715,13.834a21.728,21.728,0,0,1,28.126,6.3c-2.424,2.7-1.173,5.089-1.173,5.089A26.5,26.5,0,0,0,11.352,14.046c.121-.07.239-.144.363-.212" transform="translate(0.333 -10.29)" fill="#d73838" fill-rule="evenodd"/>
          <path id="Fill-8" d="M29.277,10.637A6.2,6.2,0,0,0,28.136,13a27.137,27.137,0,0,0-20.823-9.8,20.9,20.9,0,0,1,21.964,7.443m-.117,5.947a.832.832,0,0,0,.736-1.217c-.035-.07-.926-1.942,1.055-4.147a.832.832,0,0,0,.056-1.042,22.559,22.559,0,0,0-29.2-6.538c-.083.045-.164.094-.245.142l-.131.078a.831.831,0,0,0,.584,1.534A25.524,25.524,0,0,1,28.469,16.216a.831.831,0,0,0,.691.369" transform="translate(9.84 -0.822)" fill="#2e2e30" fill-rule="evenodd"/>
          <path id="Fill-10" d="M367.618,42.666A21.728,21.728,0,0,0,358,69.835c3.575-.618,4.934,1.712,4.934,1.712a26.5,26.5,0,0,1,5.06-29.075c-.124.065-.249.126-.372.194" transform="translate(-355.571 -39.122)" fill="#d73838" fill-rule="evenodd"/>
          <path id="Fill-23" d="M272.453,93.784A21.737,21.737,0,0,1,279.2,68.516c-2.182,8.151-2.678,19.85,10.123,24.421-.164.064-.328.13-.492.19-1.738-1.065-4.6-1.154-7.444-.047a11.114,11.114,0,0,0-3.626,2.255l-.024.139c-.118.007-.236.017-.353.023h0s-1.358-2.33-4.934-1.712" transform="translate(-270.027 -63.071)" fill="rgba(1,2,1,0.3)" fill-rule="evenodd"/>
          <path id="Fill-12" d="M354.406,36.859a27.136,27.136,0,0,0-2.77,22.849,6.182,6.182,0,0,0-2.605-.289,20.9,20.9,0,0,1,5.376-22.559m-.98,26.008a.831.831,0,0,0,.759-1.166,25.523,25.523,0,0,1,4.9-28.161.831.831,0,0,0-.989-1.31l-.135.07c-.084.043-.169.086-.252.132a22.559,22.559,0,0,0-9.988,28.208.833.833,0,0,0,.912.507c2.916-.506,4.031,1.245,4.077,1.32a.842.842,0,0,0,.715.4" transform="translate(-346.065 -29.614)" fill="#2e2e30" fill-rule="evenodd"/>
          <path id="Fill-3" d="M16.394,29.2a12.046,12.046,0,0,0-4.323.851,12.193,12.193,0,0,0-3.529,2.092,5.483,5.483,0,0,0-4.568-1.523A20.892,20.892,0,0,1,40.126,10.635a5.486,5.486,0,0,0-1.14,4.678,12.164,12.164,0,0,0-3.648,1.876c-2.446,1.816-4.035,4.3-4.233,6.568l-.118.092a10.125,10.125,0,0,0-6.382,1.4A10.131,10.131,0,0,0,20.028,29.9l-.144.056a7.677,7.677,0,0,0-3.49-.758M8.369,34.077h.043l.361-.023a.831.831,0,0,0,.727-.533A10.427,10.427,0,0,1,12.674,31.6c2.5-.975,5.137-.981,6.709-.019a.83.83,0,0,0,.718.072c.206-.074.41-.155.615-.235l.267-.1a.832.832,0,0,0,.493-.526A8.207,8.207,0,0,1,25.409,26.7a8.185,8.185,0,0,1,5.563-1.156.832.832,0,0,0,.711-.138c.177-.132.349-.267.521-.4l.222-.173a.832.832,0,0,0,.321-.646c.023-1.842,1.43-4.066,3.583-5.665a10.4,10.4,0,0,1,3.312-1.671.83.83,0,0,0,.835-.334l.088-.119c.043-.057.085-.114.125-.172a.832.832,0,0,0,.059-.859c-.053-.107-.912-1.964,1.053-4.152a.832.832,0,0,0,.056-1.042A22.554,22.554,0,0,0,2.665,31.846a.835.835,0,0,0,.912.507c2.97-.515,4.063,1.294,4.074,1.311a.83.83,0,0,0,.718.413" transform="translate(-1.009 -0.82)" fill="#2e2e30" fill-rule="evenodd"/>
          <path id="Fill-15" d="M143.824,66.5a8.961,8.961,0,0,0-4.326,4.57c-.12.046-.24.1-.36.143-8.016-15.812-7.264-26.326-7.264-26.326s9.3,4.953,18.433,20.15c-.1.078-.21.152-.313.229a8.961,8.961,0,0,0-6.17,1.234" transform="translate(-119.826 -41.341)" fill="#d73838" fill-rule="evenodd"/>
          <path id="Fill-17" d="M133.917,56.262a10.972,10.972,0,0,0-4.162,3.817c-5.581-11.474-6.451-19.961-6.558-23.2,2.69,1.821,9.429,7.087,16.166,17.89a11.029,11.029,0,0,0-5.445,1.495m-4.284,6.271a.837.837,0,0,0,.292-.052c.075-.028.15-.059.226-.089l.144-.058a.833.833,0,0,0,.493-.527,9.611,9.611,0,0,1,9.491-5.248.83.83,0,0,0,.707-.136l.124-.09c.067-.048.132-.1.2-.145a.832.832,0,0,0,.209-1.09c-9.143-15.219-18.367-20.248-18.755-20.455a.832.832,0,0,0-1.22.675c-.032.438-.677,10.926,7.352,26.761a.83.83,0,0,0,.741.455" transform="translate(-110.322 -31.833)" fill="#2e2e30" fill-rule="evenodd"/>
          <path id="Fill-19" d="M113.371,313.594l7.97,14.413" transform="translate(-89.374 -288.437)" fill="#d73838" fill-rule="evenodd"/>
          <path id="Fill-21" d="M111.829,319.337a.831.831,0,0,0,.727-1.234l-7.97-14.413a.831.831,0,0,0-1.455.8l7.97,14.413a.83.83,0,0,0,.728.429" transform="translate(-79.861 -278.936)" fill="#2e2e30" fill-rule="evenodd"/>
        </g>
      </g>
    </g>
  </g>
</svg>
